<svg xmlns="http://www.w3.org/2000/svg" fill="none" viewBox="0 0 128 128">
  <!-- Calculator body (mint color) -->
  <rect x="30" y="20" width="68" height="88" rx="8" fill="#98E4D6" stroke="#4ECDC4" stroke-width="3"/>
  
  <!-- Calculator screen -->
  <rect x="35" y="25" width="58" height="20" rx="4" fill="#2C3E50" stroke="#1A252F" stroke-width="2"/>
  <rect x="37" y="27" width="54" height="16" rx="2" fill="#00FF88"/>
  
  <!-- Screen text -->
  <text x="64" y="38" text-anchor="middle" fill="#2C3E50" font-family="monospace" font-size="8" font-weight="bold">BARF</text>
  
  <!-- Calculator buttons -->
  <!-- Row 1 -->
  <rect x="35" y="52" width="12" height="10" rx="2" fill="#F8F9FA" stroke="#4ECDC4" stroke-width="1"/>
  <rect x="50" y="52" width="12" height="10" rx="2" fill="#F8F9FA" stroke="#4ECDC4" stroke-width="1"/>
  <rect x="65" y="52" width="12" height="10" rx="2" fill="#F8F9FA" stroke="#4ECDC4" stroke-width="1"/>
  <rect x="81" y="52" width="12" height="10" rx="2" fill="#FF6B6B" stroke="#E74C3C" stroke-width="1"/>
  
  <!-- Row 2 -->
  <rect x="35" y="66" width="12" height="10" rx="2" fill="#F8F9FA" stroke="#4ECDC4" stroke-width="1"/>
  <rect x="50" y="66" width="12" height="10" rx="2" fill="#F8F9FA" stroke="#4ECDC4" stroke-width="1"/>
  <rect x="65" y="66" width="12" height="10" rx="2" fill="#F8F9FA" stroke="#4ECDC4" stroke-width="1"/>
  <rect x="81" y="66" width="12" height="10" rx="2" fill="#4ECDC4" stroke="#2C3E50" stroke-width="1"/>
  
  <!-- Row 3 -->
  <rect x="35" y="80" width="12" height="10" rx="2" fill="#F8F9FA" stroke="#4ECDC4" stroke-width="1"/>
  <rect x="50" y="80" width="12" height="10" rx="2" fill="#F8F9FA" stroke="#4ECDC4" stroke-width="1"/>
  <rect x="65" y="80" width="12" height="10" rx="2" fill="#F8F9FA" stroke="#4ECDC4" stroke-width="1"/>
  <rect x="81" y="80" width="12" height="10" rx="2" fill="#4ECDC4" stroke="#2C3E50" stroke-width="1"/>
  
  <!-- Row 4 -->
  <rect x="35" y="94" width="12" height="10" rx="2" fill="#F8F9FA" stroke="#4ECDC4" stroke-width="1"/>
  <rect x="50" y="94" width="12" height="10" rx="2" fill="#F8F9FA" stroke="#4ECDC4" stroke-width="1"/>
  <rect x="65" y="94" width="12" height="10" rx="2" fill="#F8F9FA" stroke="#4ECDC4" stroke-width="1"/>
  <rect x="81" y="94" width="12" height="10" rx="2" fill="#4ECDC4" stroke="#2C3E50" stroke-width="1"/>
</svg>
